<svg width="1080" height="1920" viewBox="0 0 1080 1920" xmlns="http://www.w3.org/2000/svg">
<defs>
  <linearGradient id="pageGrad" x1="0" y1="0" x2="1" y2="1">
    <stop offset="0" stop-color="#274b75"/><stop offset="1" stop-color="#11233d"/>
  </linearGradient>
  <linearGradient id="heroGrad" x1="0" y1="0" x2="0" y2="1">
    <stop offset="0" stop-color="#274b75"/><stop offset="1" stop-color="#1e3a5f"/>
  </linearGradient>
  <clipPath id="screenClip"><rect x="210" y="336" width="660" height="1480" rx="52"/></clipPath>
  <filter id="ds" x="-20%" y="-20%" width="140%" height="140%">
    <feDropShadow dx="0" dy="10" stdDeviation="18" flood-color="#000000" flood-opacity="0.28"/>
  </filter>
</defs>
<rect width="1080" height="1920" fill="url(#pageGrad)"/>
<circle cx="960" cy="120" r="200" fill="#ffffff" fill-opacity="0.04"/>
<circle cx="120" cy="1820" r="180" fill="#ffffff" fill-opacity="0.04"/>
<text x="540.0" y="150" font-family="Helvetica, Arial, sans-serif" font-size="58" font-weight="800" fill="#ffffff" text-anchor="middle" letter-spacing="-1">Your ballot, race by race</text>
<text x="540.0" y="214" font-family="Helvetica, Arial, sans-serif" font-size="30" font-weight="500" fill="#ffd66b" text-anchor="middle">Every contest, with sourced candidate info</text>
<g filter="url(#ds)">
  <rect x="190" y="316" width="700" height="1520" rx="70" fill="#0b1828"/>
</g>
<rect x="210" y="336" width="660" height="1480" rx="52" fill="#ffffff"/>
<g clip-path="url(#screenClip)"><g transform="translate(210,336)"><rect x="0" y="0" width="660" height="1480" rx="0" fill="#f8fafc"/><rect x="0" y="0" width="660" height="72" rx="0" fill="#ffffff"/><line x1="0" y1="72" x2="660" y2="72" stroke="#e2e8f0" stroke-width="1"/><g fill="#1e3a5f"><path d="M 37 20 c -9 0 -15 7 -15 15 c 0 11 15 21 15 21 c 0 0 15 -10 15 -21 c 0 -8 -6 -15 -15 -15 z"/><circle cx="37" cy="35" r="5.5" fill="#fff"/></g><text x="62" y="46" font-family="Helvetica, Arial, sans-serif" font-size="19" font-weight="400" fill="#1e293b">1600 Pennsylvania Ave NW, Washington DC</text><text x="640" y="46" font-family="Helvetica, Arial, sans-serif" font-size="19" font-weight="600" fill="#2563eb" text-anchor="end">Change</text><text x="20" y="128" font-family="Helvetica, Arial, sans-serif" font-size="18" font-weight="700" fill="#1e3a5f" letter-spacing="0.8">FEDERAL</text><text x="20" y="166" font-family="Helvetica, Arial, sans-serif" font-size="30" font-weight="700" fill="#0f172a">U.S. Senate</text><rect x="20" y="186" width="620" height="158" rx="14" fill="#ffffff"/><circle cx="68" cy="244" r="30" fill="#1e3a5f"/><text x="68" y="254" font-family="Helvetica, Arial, sans-serif" font-size="26" font-weight="700" fill="#ffffff" text-anchor="middle">J</text><text x="118" y="230" font-family="Helvetica, Arial, sans-serif" font-size="23" font-weight="600" fill="#0f172a">Jordan A. Maxwell</text><text x="118" y="258" font-family="Helvetica, Arial, sans-serif" font-size="19" font-weight="400" fill="#64748b">Democratic</text><text x="118" y="286" font-family="Helvetica, Arial, sans-serif" font-size="18" font-weight="400" fill="#475569">Two-term state senator focused on healthcare</text><text x="118" y="310" font-family="Helvetica, Arial, sans-serif" font-size="18" font-weight="400" fill="#475569">access and small-business tax relief.</text><circle cx="122" cy="330" r="5" fill="#22c55e"/><text x="136" y="335" font-family="Helvetica, Arial, sans-serif" font-size="16" font-weight="400" fill="#94a3b8">Verified 6/04/2026</text><rect x="20" y="360" width="620" height="158" rx="14" fill="#ffffff"/><circle cx="68" cy="418" r="30" fill="#1e3a5f"/><text x="68" y="428" font-family="Helvetica, Arial, sans-serif" font-size="26" font-weight="700" fill="#ffffff" text-anchor="middle">P</text><text x="118" y="404" font-family="Helvetica, Arial, sans-serif" font-size="23" font-weight="600" fill="#0f172a">Patricia Nguyen</text><text x="118" y="432" font-family="Helvetica, Arial, sans-serif" font-size="19" font-weight="400" fill="#64748b">Republican</text><text x="118" y="460" font-family="Helvetica, Arial, sans-serif" font-size="18" font-weight="400" fill="#475569">Former city-council member and small-business</text><text x="118" y="484" font-family="Helvetica, Arial, sans-serif" font-size="18" font-weight="400" fill="#475569">owner; focus on infrastructure and schools.</text><circle cx="122" cy="504" r="5" fill="#22c55e"/><text x="136" y="509" font-family="Helvetica, Arial, sans-serif" font-size="16" font-weight="400" fill="#94a3b8">Verified 6/04/2026</text><text x="20" y="590" font-family="Helvetica, Arial, sans-serif" font-size="18" font-weight="700" fill="#1e3a5f" letter-spacing="0.8">STATE</text><text x="20" y="628" font-family="Helvetica, Arial, sans-serif" font-size="30" font-weight="700" fill="#0f172a">Governor</text><rect x="20" y="648" width="620" height="158" rx="14" fill="#ffffff"/><circle cx="68" cy="706" r="30" fill="#1e3a5f"/><text x="68" y="716" font-family="Helvetica, Arial, sans-serif" font-size="26" font-weight="700" fill="#ffffff" text-anchor="middle">M</text><text x="118" y="692" font-family="Helvetica, Arial, sans-serif" font-size="23" font-weight="600" fill="#0f172a">Marcus A. Bell</text><text x="118" y="720" font-family="Helvetica, Arial, sans-serif" font-size="19" font-weight="400" fill="#64748b">Independent</text><text x="118" y="748" font-family="Helvetica, Arial, sans-serif" font-size="18" font-weight="400" fill="#475569">Engineer and two-term mayor running on</text><text x="118" y="772" font-family="Helvetica, Arial, sans-serif" font-size="18" font-weight="400" fill="#475569">government transparency and budget reform.</text><circle cx="122" cy="792" r="5" fill="#22c55e"/><text x="136" y="797" font-family="Helvetica, Arial, sans-serif" font-size="16" font-weight="400" fill="#94a3b8">Verified 6/04/2026</text><text x="20" y="880" font-family="Helvetica, Arial, sans-serif" font-size="18" font-weight="700" fill="#1e3a5f" letter-spacing="0.8">LOCAL</text><text x="20" y="918" font-family="Helvetica, Arial, sans-serif" font-size="30" font-weight="700" fill="#0f172a">Mayor</text><rect x="20" y="938" width="620" height="158" rx="14" fill="#ffffff"/><circle cx="68" cy="996" r="30" fill="#1e3a5f"/><text x="68" y="1006" font-family="Helvetica, Arial, sans-serif" font-size="26" font-weight="700" fill="#ffffff" text-anchor="middle">D</text><text x="118" y="982" font-family="Helvetica, Arial, sans-serif" font-size="23" font-weight="600" fill="#0f172a">Diana Okafor</text><text x="118" y="1010" font-family="Helvetica, Arial, sans-serif" font-size="19" font-weight="400" fill="#64748b">Nonpartisan</text><text x="118" y="1038" font-family="Helvetica, Arial, sans-serif" font-size="18" font-weight="400" fill="#475569">Community organizer and former school-board</text><text x="118" y="1062" font-family="Helvetica, Arial, sans-serif" font-size="18" font-weight="400" fill="#475569">chair; focus on housing and public safety.</text><circle cx="122" cy="1082" r="5" fill="#22c55e"/><text x="136" y="1087" font-family="Helvetica, Arial, sans-serif" font-size="16" font-weight="400" fill="#94a3b8">Verified 6/04/2026</text><rect x="0" y="1380" width="660" height="100" fill="#f8fafc" fill-opacity="0.6"/></g></g>
<rect x="190" y="316" width="700" height="1520" rx="70" fill="none" stroke="#000000" stroke-opacity="0.25" stroke-width="2"/>
<rect x="470.0" y="338" width="140" height="10" rx="5" fill="#0b1828"/>
</svg>