<svg width="1080" height="1920" viewBox="0 0 1080 1920" xmlns="http://www.w3.org/2000/svg">
<defs>
  <linearGradient id="pageGrad" x1="0" y1="0" x2="1" y2="1">
    <stop offset="0" stop-color="#274b75"/><stop offset="1" stop-color="#11233d"/>
  </linearGradient>
  <linearGradient id="heroGrad" x1="0" y1="0" x2="0" y2="1">
    <stop offset="0" stop-color="#274b75"/><stop offset="1" stop-color="#1e3a5f"/>
  </linearGradient>
  <clipPath id="screenClip"><rect x="210" y="336" width="660" height="1480" rx="52"/></clipPath>
  <filter id="ds" x="-20%" y="-20%" width="140%" height="140%">
    <feDropShadow dx="0" dy="10" stdDeviation="18" flood-color="#000000" flood-opacity="0.28"/>
  </filter>
</defs>
<rect width="1080" height="1920" fill="url(#pageGrad)"/>
<circle cx="960" cy="120" r="200" fill="#ffffff" fill-opacity="0.04"/>
<circle cx="120" cy="1820" r="180" fill="#ffffff" fill-opacity="0.04"/>
<text x="540.0" y="150" font-family="Helvetica, Arial, sans-serif" font-size="58" font-weight="800" fill="#ffffff" text-anchor="middle" letter-spacing="-1">Know every candidate</text>
<text x="540.0" y="214" font-family="Helvetica, Arial, sans-serif" font-size="30" font-weight="500" fill="#ffd66b" text-anchor="middle">Bios, positions &amp; sources for every race</text>
<g filter="url(#ds)">
  <rect x="190" y="316" width="700" height="1520" rx="70" fill="#0b1828"/>
</g>
<rect x="210" y="336" width="660" height="1480" rx="52" fill="#ffffff"/>
<g clip-path="url(#screenClip)"><g transform="translate(210,336)"><rect x="0" y="0" width="660" height="1480" rx="0" fill="#f8fafc"/><rect x="0" y="0" width="660" height="172" fill="url(#heroGrad)"/><circle cx="92" cy="172" r="60" fill="#1e3a5f" stroke="#ffffff" stroke-width="6"/><text x="92" y="186" font-family="Helvetica, Arial, sans-serif" font-size="44" font-weight="800" fill="#ffffff" text-anchor="middle">J</text><text x="40" y="262" font-family="Helvetica, Arial, sans-serif" font-size="32" font-weight="800" fill="#0f172a">Jordan A. Maxwell</text><text x="40" y="298" font-family="Helvetica, Arial, sans-serif" font-size="21" font-weight="400" fill="#64748b">U.S. Senate · TX</text><rect x="40" y="318" width="168" height="38" rx="19" fill="#dbeafe"/><text x="124" y="344" font-family="Helvetica, Arial, sans-serif" font-size="19" font-weight="600" fill="#2563eb" text-anchor="middle">Democratic</text><text x="95" y="404" font-family="Helvetica, Arial, sans-serif" font-size="20" font-weight="700" fill="#1e3a5f" text-anchor="middle">Overview</text><text x="260" y="404" font-family="Helvetica, Arial, sans-serif" font-size="20" font-weight="500" fill="#94a3b8" text-anchor="middle">Positions</text><text x="410" y="404" font-family="Helvetica, Arial, sans-serif" font-size="20" font-weight="500" fill="#94a3b8" text-anchor="middle">Compare</text><text x="565" y="404" font-family="Helvetica, Arial, sans-serif" font-size="20" font-weight="500" fill="#94a3b8" text-anchor="middle">Ask AI</text><rect x="60" y="418" width="70" height="4" rx="2" fill="#1e3a5f"/><line x1="0" y1="430" x2="660" y2="430" stroke="#e2e8f0" stroke-width="1"/><text x="40" y="478" font-family="Helvetica, Arial, sans-serif" font-size="22" font-weight="700" fill="#0f172a">Biography</text><text x="40" y="516" font-family="Helvetica, Arial, sans-serif" font-size="20" font-weight="400" fill="#334155">Jordan A. Maxwell is a two-term state senator</text><text x="40" y="548" font-family="Helvetica, Arial, sans-serif" font-size="20" font-weight="400" fill="#334155">and former civil-rights attorney. In office,</text><text x="40" y="580" font-family="Helvetica, Arial, sans-serif" font-size="20" font-weight="400" fill="#334155">Maxwell has prioritized expanding healthcare</text><text x="40" y="612" font-family="Helvetica, Arial, sans-serif" font-size="20" font-weight="400" fill="#334155">access, lowering prescription costs, and</text><text x="40" y="644" font-family="Helvetica, Arial, sans-serif" font-size="20" font-weight="400" fill="#334155">protecting voting access across the state.</text><rect x="20" y="712" width="620" height="150" rx="14" fill="#ffffff"/><text x="44" y="752" font-family="Helvetica, Arial, sans-serif" font-size="21" font-weight="700" fill="#0f172a">On the issues</text><rect x="44" y="772" width="138" height="40" rx="20" fill="#f1f5f9"/><text x="113.0" y="798" font-family="Helvetica, Arial, sans-serif" font-size="18" font-weight="600" fill="#0f766e" text-anchor="middle">Healthcare</text><rect x="196" y="772" width="105" height="40" rx="20" fill="#f1f5f9"/><text x="248.5" y="798" font-family="Helvetica, Arial, sans-serif" font-size="18" font-weight="600" fill="#b45309" text-anchor="middle">Economy</text><rect x="315" y="772" width="127" height="40" rx="20" fill="#f1f5f9"/><text x="378.5" y="798" font-family="Helvetica, Arial, sans-serif" font-size="18" font-weight="600" fill="#0891b2" text-anchor="middle">Education</text><text x="44" y="842" font-family="Helvetica, Arial, sans-serif" font-size="16" font-weight="400" fill="#94a3b8">Sourced from Ballotpedia &amp; VoteSmart · Verified 6/04/2026</text><rect x="20" y="884" width="620" height="64" rx="14" fill="#1e3a5f"/><text x="330" y="924" font-family="Helvetica, Arial, sans-serif" font-size="22" font-weight="700" fill="#ffffff" text-anchor="middle">Ask the AI guide about Jordan  →</text></g></g>
<rect x="190" y="316" width="700" height="1520" rx="70" fill="none" stroke="#000000" stroke-opacity="0.25" stroke-width="2"/>
<rect x="470.0" y="338" width="140" height="10" rx="5" fill="#0b1828"/>
</svg>