<svg width="1620" height="2880" viewBox="0 0 1620 2880" xmlns="http://www.w3.org/2000/svg">
<defs>
  <linearGradient id="pageGrad" x1="0" y1="0" x2="1" y2="1">
    <stop offset="0" stop-color="#274b75"/><stop offset="1" stop-color="#11233d"/>
  </linearGradient>
  <linearGradient id="heroGrad" x1="0" y1="0" x2="0" y2="1">
    <stop offset="0" stop-color="#274b75"/><stop offset="1" stop-color="#1e3a5f"/>
  </linearGradient>
  <clipPath id="screenClip"><rect x="420" y="660" width="778.8" height="1746.3999999999999" rx="61.36"/></clipPath>
  <filter id="ds" x="-20%" y="-20%" width="140%" height="140%">
    <feDropShadow dx="0" dy="10" stdDeviation="18" flood-color="#000000" flood-opacity="0.28"/>
  </filter>
</defs>
<rect width="1620" height="2880" fill="url(#pageGrad)"/>
<circle cx="1441.8" cy="172.79999999999998" r="307.8" fill="#ffffff" fill-opacity="0.04"/>
<circle cx="178.2" cy="2736.0" r="275.40000000000003" fill="#ffffff" fill-opacity="0.04"/>
<text x="810.0" y="250" font-family="Helvetica, Arial, sans-serif" font-size="86" font-weight="800" fill="#ffffff" text-anchor="middle" letter-spacing="-1">Register &amp; never miss a date</text>
<text x="810.0" y="332" font-family="Helvetica, Arial, sans-serif" font-size="44" font-weight="500" fill="#ffd66b" text-anchor="middle">Official state deadlines, methods &amp; links</text>
<g filter="url(#ds)">
  <rect x="392" y="632" width="836" height="1802" rx="84" fill="#0b1828"/>
</g>
<rect x="420" y="660" width="778.8" height="1746.3999999999999" rx="61.36" fill="#ffffff"/>
<g clip-path="url(#screenClip)"><g transform="translate(420,660) scale(1.18)"><rect x="0" y="0" width="660" height="1480" rx="0" fill="#f8fafc"/><rect x="0" y="0" width="660" height="150" rx="0" fill="#1e3a5f"/><text x="28" y="78" font-family="Helvetica, Arial, sans-serif" font-size="31" font-weight="700" fill="#ffffff">Register in Texas</text><text x="28" y="118" font-family="Helvetica, Arial, sans-serif" font-size="20" font-weight="400" fill="#93c5fd">Photo ID required to vote</text><rect x="16" y="176" width="628" height="196" rx="14" fill="#ffffff"/><g transform="translate(40,200)"><g fill="none" stroke="#1e3a5f" stroke-width="3" stroke-linecap="round"><circle cx="16" cy="16" r="14"/><path d="M 16 8 v 9 l 6 4"/></g></g><text x="84" y="224" font-family="Helvetica, Arial, sans-serif" font-size="21" font-weight="700" fill="#1e3a5f">Registration Deadlines</text><text x="40" y="268" font-family="Helvetica, Arial, sans-serif" font-size="19" font-weight="400" fill="#64748b">Online</text><text x="620" y="268" font-family="Helvetica, Arial, sans-serif" font-size="19" font-weight="600" fill="#1e293b" text-anchor="end">Oct 6, 2026</text><line x1="40" y1="282" x2="620" y2="282" stroke="#f1f5f9" stroke-width="1"/><text x="40" y="302" font-family="Helvetica, Arial, sans-serif" font-size="19" font-weight="400" fill="#64748b">By Mail</text><text x="620" y="302" font-family="Helvetica, Arial, sans-serif" font-size="19" font-weight="600" fill="#1e293b" text-anchor="end">Postmarked Oct 6</text><line x1="40" y1="316" x2="620" y2="316" stroke="#f1f5f9" stroke-width="1"/><text x="40" y="336" font-family="Helvetica, Arial, sans-serif" font-size="19" font-weight="400" fill="#64748b">In Person</text><text x="620" y="336" font-family="Helvetica, Arial, sans-serif" font-size="19" font-weight="600" fill="#1e293b" text-anchor="end">Oct 6, 2026</text><rect x="16" y="396" width="628" height="268" rx="14" fill="#ffffff"/><g transform="translate(40,420)"><g fill="none" stroke="#1e3a5f" stroke-width="3" stroke-linecap="round" stroke-linejoin="round"><rect x="3" y="4" width="28" height="32" rx="4"/><rect x="11" y="0" width="12" height="8" rx="2" fill="#1e3a5f"/><path d="M 9 16 h 16 M 9 24 h 16"/></g></g><text x="84" y="444" font-family="Helvetica, Arial, sans-serif" font-size="21" font-weight="700" fill="#1e3a5f">How to Register</text><rect x="40" y="470" width="580" height="80" rx="8" fill="#f8fafc"/><text x="60" y="502" font-family="Helvetica, Arial, sans-serif" font-size="19" font-weight="700" fill="#1e3a5f">Online (Fastest)</text><text x="60" y="532" font-family="Helvetica, Arial, sans-serif" font-size="19" font-weight="600" fill="#4f46e5">Register at the Texas official site  →</text><rect x="40" y="562" width="580" height="82" rx="8" fill="#f8fafc"/><text x="60" y="594" font-family="Helvetica, Arial, sans-serif" font-size="19" font-weight="700" fill="#1e3a5f">By Mail</text><text x="60" y="624" font-family="Helvetica, Arial, sans-serif" font-size="18" font-weight="400" fill="#475569">Download the form, complete it, and mail to</text><rect x="16" y="688" width="628" height="64" rx="12" fill="#ecfdf5" stroke="#22c55e" stroke-width="1.5"/><text x="330" y="728" font-family="Helvetica, Arial, sans-serif" font-size="19" font-weight="600" fill="#166534" text-anchor="middle">Check if You&#x27;re Already Registered  →</text><rect x="16" y="768" width="628" height="64" rx="12" fill="#ffffff" stroke="#cbd5e1" stroke-width="1.5"/><text x="330" y="808" font-family="Helvetica, Arial, sans-serif" font-size="19" font-weight="500" fill="#1e3a5f" text-anchor="middle">Official Texas Elections Site</text><text x="330" y="876" font-family="Helvetica, Arial, sans-serif" font-size="17" font-weight="400" fill="#94a3b8" text-anchor="middle">VoterIQ links directly to official government</text><text x="330" y="900" font-family="Helvetica, Arial, sans-serif" font-size="17" font-weight="400" fill="#94a3b8" text-anchor="middle">registration sites. Always verify deadlines.</text></g></g>
<rect x="392" y="632" width="836" height="1802" rx="84" fill="none" stroke="#000000" stroke-opacity="0.25" stroke-width="2"/>
<rect x="739.4" y="660" width="140" height="10" rx="5" fill="#0b1828"/>
</svg>