<svg width="1620" height="2880" viewBox="0 0 1620 2880" xmlns="http://www.w3.org/2000/svg">
<defs>
  <linearGradient id="pageGrad" x1="0" y1="0" x2="1" y2="1">
    <stop offset="0" stop-color="#274b75"/><stop offset="1" stop-color="#11233d"/>
  </linearGradient>
  <linearGradient id="heroGrad" x1="0" y1="0" x2="0" y2="1">
    <stop offset="0" stop-color="#274b75"/><stop offset="1" stop-color="#1e3a5f"/>
  </linearGradient>
  <clipPath id="screenClip"><rect x="420" y="660" width="778.8" height="1746.3999999999999" rx="61.36"/></clipPath>
  <filter id="ds" x="-20%" y="-20%" width="140%" height="140%">
    <feDropShadow dx="0" dy="10" stdDeviation="18" flood-color="#000000" flood-opacity="0.28"/>
  </filter>
</defs>
<rect width="1620" height="2880" fill="url(#pageGrad)"/>
<circle cx="1441.8" cy="172.79999999999998" r="307.8" fill="#ffffff" fill-opacity="0.04"/>
<circle cx="178.2" cy="2736.0" r="275.40000000000003" fill="#ffffff" fill-opacity="0.04"/>
<text x="810.0" y="250" font-family="Helvetica, Arial, sans-serif" font-size="86" font-weight="800" fill="#ffffff" text-anchor="middle" letter-spacing="-1">See your exact ballot</text>
<text x="810.0" y="332" font-family="Helvetica, Arial, sans-serif" font-size="44" font-weight="500" fill="#ffd66b" text-anchor="middle">Type your address — get your personal ballot</text>
<g filter="url(#ds)">
  <rect x="392" y="632" width="836" height="1802" rx="84" fill="#0b1828"/>
</g>
<rect x="420" y="660" width="778.8" height="1746.3999999999999" rx="61.36" fill="#ffffff"/>
<g clip-path="url(#screenClip)"><g transform="translate(420,660) scale(1.18)"><rect x="0" y="0" width="660" height="1480" rx="0" fill="#f1f5f9"/><rect x="0" y="0" width="660" height="322" rx="0" fill="#1e3a5f"/><text x="330" y="120" font-family="Helvetica, Arial, sans-serif" font-size="17" font-weight="800" fill="#60a5fa" text-anchor="middle" letter-spacing="2">NONPARTISAN · SOURCED · FREE</text><text x="330" y="208" font-family="Helvetica, Arial, sans-serif" font-size="76" font-weight="900" fill="#ffffff" text-anchor="middle" letter-spacing="-1">VoterIQ</text><text x="330" y="258" font-family="Helvetica, Arial, sans-serif" font-size="24" font-weight="500" fill="#93c5fd" text-anchor="middle">Your complete civic companion</text><rect x="20" y="288" width="620" height="384" rx="20" fill="#ffffff"/><text x="44" y="344" font-family="Helvetica, Arial, sans-serif" font-size="31" font-weight="800" fill="#0f172a">See Your Exact Ballot</text><text x="44" y="382" font-family="Helvetica, Arial, sans-serif" font-size="21" font-weight="400" fill="#64748b">Enter your registered address to get your</text><text x="44" y="410" font-family="Helvetica, Arial, sans-serif" font-size="21" font-weight="400" fill="#64748b">personal ballot, candidates &amp; AI research.</text><rect x="44" y="446" width="572" height="62" rx="12" fill="#f8fafc" stroke="#e2e8f0" stroke-width="1.5"/><text x="64" y="485" font-family="Helvetica, Arial, sans-serif" font-size="21" font-weight="400" fill="#94a3b8">123 Main St, Austin, TX 78701</text><rect x="44" y="530" width="572" height="68" rx="12" fill="#1e3a5f"/><text x="330" y="573" font-family="Helvetica, Arial, sans-serif" font-size="26" font-weight="700" fill="#ffffff" text-anchor="middle">View My Ballot   →</text><line x1="44" y1="632" x2="616" y2="632" stroke="#eef2f7" stroke-width="1"/><g fill="#1e3a5f"><path d="M 61 646 c -9 0 -15 7 -15 15 c 0 11 15 21 15 21 c 0 0 15 -10 15 -21 c 0 -8 -6 -15 -15 -15 z"/><circle cx="61" cy="661" r="5.5" fill="#fff"/></g><text x="86" y="666" font-family="Helvetica, Arial, sans-serif" font-size="19" font-weight="400" fill="#475569">1600 Pennsylvania Ave NW, Washington DC</text><text x="40" y="724" font-family="Helvetica, Arial, sans-serif" font-size="19" font-weight="800" fill="#94a3b8" letter-spacing="1.5">EXPLORE</text><rect x="20" y="744" width="620" height="92" rx="14" fill="#ffffff"/><path d="M 26 744 h -6 a0 0 0 0 0 0 0 v 92 h 6 z" fill="#0f766e"/><rect x="20" y="744" width="8" height="92" rx="4" fill="#0f766e"/><rect x="40" y="764" width="52" height="52" rx="13" fill="#0f766e"/><rect x="40" y="764" width="52" height="52" rx="13" fill="#ffffff" fill-opacity="0.80"/><g transform="translate(49,773)"><g fill="#0f766e"><rect x="0" y="18" width="8" height="16" rx="2"/><rect x="12" y="8" width="8" height="26" rx="2"/><rect x="24" y="0" width="8" height="34" rx="2"/></g></g><text x="112" y="786" font-family="Helvetica, Arial, sans-serif" font-size="22" font-weight="700" fill="#0f172a">Election Center</text><text x="112" y="812" font-family="Helvetica, Arial, sans-serif" font-size="18" font-weight="400" fill="#64748b">Polls, reps, races &amp; news by state</text><text x="612" y="804" font-family="Helvetica, Arial, sans-serif" font-size="34" font-weight="300" fill="#0f766e" text-anchor="end">›</text><rect x="20" y="850" width="620" height="92" rx="14" fill="#ffffff"/><path d="M 26 850 h -6 a0 0 0 0 0 0 0 v 92 h 6 z" fill="#b45309"/><rect x="20" y="850" width="8" height="92" rx="4" fill="#b45309"/><rect x="40" y="870" width="52" height="52" rx="13" fill="#b45309"/><rect x="40" y="870" width="52" height="52" rx="13" fill="#ffffff" fill-opacity="0.80"/><g transform="translate(49,879)"><g fill="none" stroke="#b45309" stroke-width="3.2" stroke-linecap="round" stroke-linejoin="round"><path d="M 4 26 q 0 -20 13 -20 q 13 0 13 20 l 3 5 h -32 z"/><path d="M 13 33 q 4 5 8 0"/></g></g><text x="112" y="892" font-family="Helvetica, Arial, sans-serif" font-size="22" font-weight="700" fill="#0f172a">My Alerts</text><text x="112" y="918" font-family="Helvetica, Arial, sans-serif" font-size="18" font-weight="400" fill="#64748b">Follow politicians &amp; get news alerts</text><text x="612" y="910" font-family="Helvetica, Arial, sans-serif" font-size="34" font-weight="300" fill="#b45309" text-anchor="end">›</text><rect x="20" y="956" width="620" height="92" rx="14" fill="#ffffff"/><path d="M 26 956 h -6 a0 0 0 0 0 0 0 v 92 h 6 z" fill="#0891b2"/><rect x="20" y="956" width="8" height="92" rx="4" fill="#0891b2"/><rect x="40" y="976" width="52" height="52" rx="13" fill="#0891b2"/><rect x="40" y="976" width="52" height="52" rx="13" fill="#ffffff" fill-opacity="0.80"/><g transform="translate(49,985)"><g fill="none" stroke="#0891b2" stroke-width="3" stroke-linecap="round" stroke-linejoin="round"><rect x="3" y="4" width="28" height="32" rx="4"/><rect x="11" y="0" width="12" height="8" rx="2" fill="#0891b2"/><path d="M 9 16 h 16 M 9 24 h 16"/></g></g><text x="112" y="998" font-family="Helvetica, Arial, sans-serif" font-size="22" font-weight="700" fill="#0f172a">Register to Vote</text><text x="112" y="1024" font-family="Helvetica, Arial, sans-serif" font-size="18" font-weight="400" fill="#64748b">Find your state guide</text><text x="612" y="1016" font-family="Helvetica, Arial, sans-serif" font-size="34" font-weight="300" fill="#0891b2" text-anchor="end">›</text><rect x="20" y="1062" width="620" height="92" rx="14" fill="#ffffff"/><path d="M 26 1062 h -6 a0 0 0 0 0 0 0 v 92 h 6 z" fill="#7c3aed"/><rect x="20" y="1062" width="8" height="92" rx="4" fill="#7c3aed"/><rect x="40" y="1082" width="52" height="52" rx="13" fill="#7c3aed"/><rect x="40" y="1082" width="52" height="52" rx="13" fill="#ffffff" fill-opacity="0.80"/><g transform="translate(49,1091)"><g fill="#7c3aed"><path d="M 17 2 c -9 0 -15 7 -15 15 c 0 11 15 21 15 21 c 0 0 15 -10 15 -21 c 0 -8 -6 -15 -15 -15 z"/><circle cx="17" cy="17" r="5.5" fill="#fff"/></g></g><text x="112" y="1104" font-family="Helvetica, Arial, sans-serif" font-size="22" font-weight="700" fill="#0f172a">How to Vote</text><text x="112" y="1130" font-family="Helvetica, Arial, sans-serif" font-size="18" font-weight="400" fill="#64748b">Polling place &amp; ID info</text><text x="612" y="1122" font-family="Helvetica, Arial, sans-serif" font-size="34" font-weight="300" fill="#7c3aed" text-anchor="end">›</text><text x="330" y="1206" font-family="Helvetica, Arial, sans-serif" font-size="17" font-weight="400" fill="#94a3b8" text-anchor="middle">VoterIQ is nonpartisan. All data is sourced</text><text x="330" y="1230" font-family="Helvetica, Arial, sans-serif" font-size="17" font-weight="400" fill="#94a3b8" text-anchor="middle">from official civic databases.</text></g></g>
<rect x="392" y="632" width="836" height="1802" rx="84" fill="none" stroke="#000000" stroke-opacity="0.25" stroke-width="2"/>
<rect x="739.4" y="660" width="140" height="10" rx="5" fill="#0b1828"/>
</svg>